<svg width="12" height="12" viewBox="0 0 12 12" fill="none" xmlns="http://www.w3.org/2000/svg">
<path fill-rule="evenodd" clip-rule="evenodd" d="M9.53553 1.05022C9.92605 0.659693 10.5592 0.659693 10.9497 1.05022C11.3403 1.44074 11.3403 2.07391 10.9497 2.46443L7.41421 5.99996L10.9497 9.5355C11.3403 9.92602 11.3403 10.5592 10.9497 10.9497C10.5592 11.3402 9.92605 11.3402 9.53553 10.9497L6 7.41418L2.46446 10.9497C2.07394 11.3402 1.44077 11.3402 1.05025 10.9497C0.659724 10.5592 0.659724 9.92602 1.05025 9.5355L4.58578 5.99996L1.05025 2.46443C0.659724 2.07391 0.659724 1.44074 1.05025 1.05022C1.44077 0.659693 2.07394 0.659693 2.46446 1.05022L6 4.58575L9.53553 1.05022Z" fill="#EB4B51"/>
</svg>
